# xmcd
#
# Track frame offsets:
#	150
#	22012
#	50102
#	74157
#	104502
#	127402
#	173995
#	194402
#	213127
#
# Disc length: 3090 seconds
#
# Revision: 1
# Processed by: cddbd v1.4PL0 Copyright (c) Steve Scherf et al.
# Submitted via: CDmax 1.8
#
DISCID=950c1009
DTITLE=Tino Gonzales - Smiles For Miles
DYEAR=1997
DGENRE=Blues
TTITLE0=Funky and Halstead
TTITLE1=One More Mile
TTITLE2=Body and Fender Man
TTITLE3=Young Thing
TTITLE4=The Thrill Is Gone
TTITLE5=Smiles For Miles
TTITLE6=Big Blues Man
TTITLE7=Golden Light
TTITLE8=What's Goin' On
EXTD=
EXTT0=
EXTT1=
EXTT2=
EXTT3=
EXTT4=
EXTT5=
EXTT6=
EXTT7=
EXTT8=
PLAYORDER=
